  0
SECTION
  2
HEADER
  9
$ACADVER
  1
AC1009
  9
$INSBASE
 10
0.0
 20
0.0
 30
0.0
  9
$EXTMIN
 10
0.0
 20
0.0
 30
0.0
  9
$EXTMAX
 10
0.0
 20
0.0
 30
0.0
  0
ENDSEC
  0
SECTION
  2
TABLES
  0
TABLE
  2
VPORT
 70
0
  0
ENDTAB
  0
TABLE
  2
LTYPE
 70
1
  0
LTYPE
  2
CONTINUOUS
 70
0
  3
Solid line
 72
65
 73
0
 40
0.0
  0
ENDTAB
  0
TABLE
  2
LAYER
 70
1
  0
LAYER
  2
0
 70
64
 62
7
  6
continuous
  0
ENDTAB
  0
TABLE
  2
STYLE
 70
1
  0
STYLE
  2
STANDARD
 70
0
 40
0
 41
1.0
 50
0.0
 71
0
 42
1
 3
ARIAL.TTF
 4

  0
ENDTAB
  0
TABLE
  2
VIEW
 70
0
  0
ENDTAB
  0
ENDSEC
  0
SECTION
  2
BLOCKS
  0
BLOCK
  8
0
  2
POCKET002
 70
0
 10
0.0
 20
0.0
 30
0.0
  3
POCKET002
  0
LINE
  8
0
 62
0
 10
69.0118
 20
127.0
 30
0.0
 11
43.6118
 21
127.0
 31
0.0
  0
ARC
  8
0
 62
0
 10
69.0118
 20
123.825
 30
0.0
 40
3.175
 50
-0.0
 51
90.0
  0
ARC
  8
0
 62
0
 10
43.6118
 20
123.825
 30
0.0
 40
3.175
 50
90.0
 51
-180.0
  0
LINE
  8
0
 62
0
 10
72.1868
 20
-123.825
 30
0.0
 11
72.1868
 21
123.825
 31
0.0
  0
LINE
  8
0
 62
0
 10
40.4368
 20
123.825
 30
0.0
 11
40.4368
 21
79.375
 31
0.0
  0
ARC
  8
0
 62
0
 10
69.0118
 20
-123.825
 30
0.0
 40
3.175
 50
-90.0
 51
-0.0
  0
ARC
  8
0
 62
0
 10
34.0868
 20
79.375
 30
0.0
 40
6.35
 50
-90.0
 51
-0.0
  0
LINE
  8
0
 62
0
 10
43.6118
 20
-127.0
 30
0.0
 11
69.0118
 21
-127.0
 31
0.0
  0
LINE
  8
0
 62
0
 10
34.0868
 20
73.025
 30
0.0
 11
-34.0868
 21
73.025
 31
0.0
  0
ARC
  8
0
 62
0
 10
43.6118
 20
-123.825
 30
0.0
 40
3.175
 50
-180.0
 51
-90.0
  0
ARC
  8
0
 62
0
 10
-34.0868
 20
79.375
 30
0.0
 40
6.35
 50
-180.0
 51
-90.0
  0
LINE
  8
0
 62
0
 10
40.4368
 20
-79.375
 30
0.0
 11
40.4368
 21
-123.825
 31
0.0
  0
LINE
  8
0
 62
0
 10
-40.4368
 20
79.375
 30
0.0
 11
-40.4368
 21
120.65
 31
0.0
  0
ARC
  8
0
 62
0
 10
34.0868
 20
-79.375
 30
0.0
 40
6.35
 50
-0.0
 51
90.0
  0
ARC
  8
0
 62
0
 10
-46.7868
 20
120.65
 30
0.0
 40
6.35
 50
-0.0
 51
90.0
  0
LINE
  8
0
 62
0
 10
-34.0868
 20
-73.025
 30
0.0
 11
34.0868
 21
-73.025
 31
0.0
  0
LINE
  8
0
 62
0
 10
-46.7868
 20
127.0
 30
0.0
 11
-63.6210077586
 21
127.0
 31
0.0
  0
ARC
  8
0
 62
0
 10
-34.0868
 20
-79.375
 30
0.0
 40
6.35
 50
90.0
 51
-180.0
  0
ARC
  8
0
 62
0
 10
-63.6210077586
 20
120.65
 30
0.0
 40
6.35
 50
90.0
 51
128.472219398
  0
LINE
  8
0
 62
0
 10
-40.4368
 20
-120.65
 30
0.0
 11
-40.4368
 21
-79.375
 31
0.0
  0
LINE
  8
0
 62
0
 10
-67.5715656802
 20
125.62147786
 30
0.0
 11
-195.288757922
 21
24.1317036358
 31
0.0
  0
ARC
  8
0
 62
0
 10
-46.7868
 20
-120.65
 30
0.0
 40
6.35
 50
-90.0
 51
-0.0
  0
ARC
  8
0
 62
0
 10
-191.3382
 20
19.1602257762
 30
0.0
 40
6.35
 50
128.472219398
 51
-180.0
  0
LINE
  8
0
 62
0
 10
-63.6210077586
 20
-127.0
 30
0.0
 11
-46.7868
 21
-127.0
 31
0.0
  0
LINE
  8
0
 62
0
 10
-197.6882
 20
19.1602257762
 30
0.0
 11
-197.6882
 21
-19.1602257762
 31
0.0
  0
ARC
  8
0
 62
0
 10
-63.6210077586
 20
-120.65
 30
0.0
 40
6.35
 50
-128.472219398
 51
-90.0
  0
ARC
  8
0
 62
0
 10
-191.3382
 20
-19.1602257762
 30
0.0
 40
6.35
 50
-180.0
 51
-128.472219398
  0
LINE
  8
0
 62
0
 10
-195.288757922
 20
-24.1317036358
 30
0.0
 11
-67.5715656802
 21
-125.62147786
 31
0.0
  0
CIRCLE
  8
0
 62
0
 10
-96.9232533264
 20
-96.2142429748
 30
0.0
 40
2.2479
  0
CIRCLE
  8
0
 62
0
 10
15.24
 20
-53.975
 30
0.0
 40
2.3622
  0
CIRCLE
  8
0
 62
0
 10
-21.3868
 20
-53.975
 30
0.0
 40
2.3622
  0
CIRCLE
  8
0
 62
0
 10
-21.3868
 20
-66.675
 30
0.0
 40
2.3622
  0
CIRCLE
  8
0
 62
0
 10
15.0368
 20
66.675
 30
0.0
 40
2.3622
  0
CIRCLE
  8
0
 62
0
 10
-21.3868
 20
53.975
 30
0.0
 40
2.3622
  0
CIRCLE
  8
0
 62
0
 10
-26.2382
 20
0.0
 30
0.0
 40
1.651
  0
CIRCLE
  8
0
 62
0
 10
-18.2753
 20
0.0
 30
0.0
 40
1.651
  0
CIRCLE
  8
0
 62
0
 10
-26.2382
 20
-9.525
 30
0.0
 40
1.651
  0
CIRCLE
  8
0
 62
0
 10
-34.2011
 20
0.0
 30
0.0
 40
1.651
  0
CIRCLE
  8
0
 62
0
 10
-72.0658640284
 20
-115.967032583
 30
0.0
 40
2.2479
  0
CIRCLE
  8
0
 62
0
 10
-143.0528
 20
0.0
 30
0.0
 40
2.2479
  0
CIRCLE
  8
0
 62
0
 10
-165.9382
 20
0.0
 30
0.0
 40
17.78
  0
CIRCLE
  8
0
 62
0
 10
-177.3809
 20
-19.8193377758
 30
0.0
 40
2.2479
  0
CIRCLE
  8
0
 62
0
 10
-177.3809
 20
19.8193377758
 30
0.0
 40
2.2479
  0
CIRCLE
  8
0
 62
0
 10
67.4243
 20
117.475
 30
0.0
 40
2.2479
  0
CIRCLE
  8
0
 62
0
 10
67.4243
 20
66.675
 30
0.0
 40
2.2479
  0
CIRCLE
  8
0
 62
0
 10
67.4243
 20
-66.675
 30
0.0
 40
2.2479
  0
CIRCLE
  8
0
 62
0
 10
15.24
 20
-66.675
 30
0.0
 40
2.3622
  0
CIRCLE
  8
0
 62
0
 10
-72.0658640284
 20
115.967032583
 30
0.0
 40
2.2479
  0
CIRCLE
  8
0
 62
0
 10
15.24
 20
53.975
 30
0.0
 40
2.3622
  0
CIRCLE
  8
0
 62
0
 10
-21.3868
 20
66.675
 30
0.0
 40
2.3622
  0
CIRCLE
  8
0
 62
0
 10
-26.2382
 20
9.525
 30
0.0
 40
1.651
  0
CIRCLE
  8
0
 62
0
 10
-96.9232533264
 20
96.2142429748
 30
0.0
 40
2.2479
  0
CIRCLE
  8
0
 62
0
 10
67.4243
 20
-117.475
 30
0.0
 40
2.2479
  0
ENDBLK
  0
ENDSEC
  0
SECTION
  2
ENTITIES
  0
INSERT
  2
POCKET002
  8
0
 62
0
 10
0.0
 20
0.0
 30
0.0
  0
ENDSEC
  0
EOF
